<svg width="24" height="24" viewBox="0 0 24 24" fill="none" xmlns="http://www.w3.org/2000/svg">
<path d="M5 12.9997H16.17L11.29 17.8797C10.9 18.2697 10.9 18.9097 11.29 19.2997C11.68 19.6897 12.31 19.6897 12.7 19.2997L19.29 12.7097C19.3827 12.6172 19.4563 12.5073 19.5064 12.3864C19.5566 12.2654 19.5824 12.1357 19.5824 12.0047C19.5824 11.8738 19.5566 11.7441 19.5064 11.6231C19.4563 11.5021 19.3827 11.3922 19.29 11.2997L12.71 4.69974C12.6174 4.60715 12.5075 4.53371 12.3865 4.48361C12.2656 4.4335 12.1359 4.40771 12.005 4.40771C11.8741 4.40771 11.7444 4.4335 11.6235 4.48361C11.5025 4.53371 11.3926 4.60715 11.3 4.69974C11.2074 4.79232 11.134 4.90223 11.0839 5.02319C11.0338 5.14416 11.008 5.2738 11.008 5.40474C11.008 5.53567 11.0338 5.66531 11.0839 5.78628C11.134 5.90724 11.2074 6.01715 11.3 6.10974L16.17 10.9997H5C4.45 10.9997 4 11.4497 4 11.9997C4 12.5497 4.45 12.9997 5 12.9997Z" fill="#34495E" fill-opacity="0.75"/>
</svg>
