<svg width="416" height="304" viewBox="0 0 416 304" fill="none" xmlns="http://www.w3.org/2000/svg">
<rect width="416" height="304" rx="8" fill="white"/>
<path d="M155.165 158.18C157.425 158.18 159.405 157.14 160.645 155.5L158.805 154.12C157.965 155.2 156.725 155.9 155.225 155.9C152.565 155.9 150.625 153.76 150.625 151.12C150.625 148.48 152.605 146.34 155.225 146.34C156.725 146.34 157.965 147.04 158.805 148.14L160.645 146.74C159.405 145.12 157.425 144.06 155.165 144.06C151.285 144.06 148.165 147.22 148.165 151.12C148.165 155.02 151.285 158.18 155.165 158.18ZM166.873 158.2C169.533 158.2 171.853 156.26 171.853 153.3C171.853 150.34 169.533 148.46 166.873 148.46C164.213 148.46 161.913 150.34 161.913 153.3C161.913 156.26 164.213 158.2 166.873 158.2ZM166.873 156.04C165.433 156.04 164.253 154.94 164.253 153.3C164.253 151.7 165.433 150.62 166.873 150.62C168.313 150.62 169.513 151.7 169.513 153.3C169.513 154.94 168.313 156.04 166.873 156.04ZM185.296 148.46C184.356 148.46 182.896 148.82 182.156 150.3C181.616 149.1 180.496 148.46 179.136 148.46C177.976 148.46 176.696 149.08 176.356 150.26V148.66H174.036V158H176.356V153.08C176.356 151.3 177.436 150.7 178.516 150.7C179.516 150.7 180.296 151.44 180.296 152.94V158H182.616V153.3L182.636 153.38C182.536 151.7 183.376 150.7 184.716 150.7C185.796 150.7 186.576 151.44 186.576 152.94V158H188.876V152.76C188.876 150.04 187.636 148.46 185.296 148.46ZM192.696 146.78C193.536 146.78 194.196 146.16 194.196 145.36C194.196 144.54 193.536 143.94 192.696 143.94C191.876 143.94 191.176 144.54 191.176 145.36C191.176 146.16 191.876 146.78 192.696 146.78ZM191.536 158H193.856V148.66H191.536V158ZM201.834 148.46C200.874 148.46 199.414 148.98 198.934 150.14V148.66H196.614V158H198.934V153.12C198.934 151.32 200.254 150.74 201.314 150.74C202.354 150.74 203.254 151.5 203.254 152.98V158H205.574V152.76C205.574 150.04 204.234 148.46 201.834 148.46ZM215.356 148.66V149.88C214.696 148.92 213.436 148.46 212.236 148.46C209.776 148.46 207.656 150.32 207.656 153.32C207.656 156.3 209.796 158.2 212.256 158.2C213.396 158.2 214.696 157.72 215.356 156.76V156.9C215.356 159.56 214.236 160.6 212.436 160.6C211.416 160.6 210.396 160 209.936 159.08L208.016 159.96C208.836 161.66 210.516 162.7 212.436 162.7C215.636 162.7 217.676 160.88 217.676 156.68V148.66H215.356ZM212.616 156.02C211.176 156.02 209.996 154.86 209.996 153.3C209.996 151.74 211.176 150.62 212.616 150.62C213.956 150.62 215.316 151.66 215.316 153.3C215.316 154.94 214.036 156.02 212.616 156.02ZM228.445 158.2C230.345 158.2 232.245 157.2 232.245 155.3C232.245 154.44 231.865 153.12 229.765 152.58L228.265 152.18C227.725 152.06 227.265 151.78 227.265 151.3C227.265 150.72 227.765 150.32 228.485 150.32C229.145 150.32 229.725 150.72 229.725 151.38H231.945C231.965 149.28 230.085 148.46 228.425 148.46C226.385 148.46 224.945 149.74 224.945 151.2C224.945 152.38 225.485 153.5 227.585 154.06L228.825 154.38C229.525 154.54 229.925 154.78 229.925 155.3C229.925 155.9 229.325 156.32 228.405 156.32C227.425 156.32 226.865 155.72 226.865 155.08H224.685C224.725 157.08 226.585 158.2 228.445 158.2ZM238.787 158.2C241.447 158.2 243.767 156.26 243.767 153.3C243.767 150.34 241.447 148.46 238.787 148.46C236.127 148.46 233.827 150.34 233.827 153.3C233.827 156.26 236.127 158.2 238.787 158.2ZM238.787 156.04C237.347 156.04 236.167 154.94 236.167 153.3C236.167 151.7 237.347 150.62 238.787 150.62C240.227 150.62 241.427 151.7 241.427 153.3C241.427 154.94 240.227 156.04 238.787 156.04ZM250.33 158.2C252.99 158.2 255.31 156.26 255.31 153.3C255.31 150.34 252.99 148.46 250.33 148.46C247.67 148.46 245.37 150.34 245.37 153.3C245.37 156.26 247.67 158.2 250.33 158.2ZM250.33 156.04C248.89 156.04 247.71 154.94 247.71 153.3C247.71 151.7 248.89 150.62 250.33 150.62C251.77 150.62 252.97 151.7 252.97 153.3C252.97 154.94 251.77 156.04 250.33 156.04ZM262.713 148.46C261.753 148.46 260.293 148.98 259.813 150.14V148.66H257.493V158H259.813V153.12C259.813 151.32 261.133 150.74 262.193 150.74C263.233 150.74 264.133 151.5 264.133 152.98V158H266.453V152.76C266.453 150.04 265.113 148.46 262.713 148.46Z" fill="#34495E" fill-opacity="0.5"/>
</svg>
