<svg width="416" height="304" viewBox="0 0 416 304" fill="none" xmlns="http://www.w3.org/2000/svg">
<rect width="416" height="304" rx="8" fill="white"/>
<mask id="mask0" mask-type="alpha" maskUnits="userSpaceOnUse" x="12" y="20" width="392" height="220">
<rect x="12.6666" y="20" width="391.111" height="220" fill="#C4C4C4"/>
</mask>
<g mask="url(#mask0)">
<g filter="url(#filter0_d)">
<path fill-rule="evenodd" clip-rule="evenodd" d="M12.6666 20H403.778V240H12.6666V20ZM275.764 42.4633V37.2864C275.764 32.1577 271.606 28 266.477 28H136.842C131.713 28 127.556 32.1577 127.556 37.2864V63.0676C127.556 68.1964 131.713 72.354 136.842 72.354H266.477C271.606 72.354 275.764 68.1964 275.764 63.0676V51.7496H284.857V91.9149H202.021C199.457 91.9149 197.378 93.9937 197.378 96.5581V123.532H181.21C175.934 123.532 171.656 127.809 171.656 133.085C171.656 138.361 175.934 142.638 181.21 142.638H185.393V222.06C185.393 227.188 189.551 231.346 194.679 231.346H209.363C214.492 231.346 218.649 227.188 218.649 222.06V142.638H222.832C228.109 142.638 232.386 138.361 232.386 133.085C232.386 127.809 228.109 123.532 222.832 123.532H206.664V101.201H289.5C292.064 101.201 294.143 99.1225 294.143 96.5581V47.1064C294.143 44.5421 292.064 42.4633 289.5 42.4633H275.764Z" fill="white"/>
</g>
</g>
<path d="M152.359 278.991C152.359 279.32 152.643 279.616 152.957 279.616H155.571C156.043 279.616 156.232 279.353 156.232 278.991V272.01C156.547 270.66 157.523 269.672 158.971 269.672C160.483 269.672 161.459 270.825 161.459 272.636V278.991C161.459 279.32 161.711 279.616 162.057 279.616H164.608C164.922 279.616 165.206 279.32 165.206 278.991V272.669C165.206 269.343 163.568 266.116 159.57 266.116C158.09 266.116 156.862 266.709 156.232 267.203V257.192C156.232 256.863 155.949 256.567 155.634 256.567H152.957C152.643 256.567 152.359 256.863 152.359 257.192V278.991Z" fill="#64646F"/>
<path d="M167.773 273.031C167.773 276.818 170.449 279.946 174.228 279.946C176.274 279.946 177.88 279.155 178.919 278.135C179.234 277.871 179.171 277.509 178.951 277.278L177.66 275.731C177.439 275.467 177.156 275.533 176.841 275.731C176.274 276.159 175.361 276.554 174.385 276.554C172.559 276.554 171.457 275.039 171.362 273.689H179.423C179.706 273.689 179.99 273.459 180.021 273.13C180.053 272.899 180.084 272.471 180.084 272.241C180.084 268.684 177.439 266.116 174.196 266.116C170.449 266.116 167.773 269.31 167.773 273.031ZM171.646 271.384C171.803 270.133 172.842 269.145 174.102 269.145C175.298 269.145 176.306 270.166 176.4 271.384H171.646Z" fill="#64646F"/>
<path d="M182.739 278.991C182.739 279.32 183.022 279.616 183.337 279.616H185.888C186.202 279.616 186.486 279.32 186.486 278.991V271.747C186.801 270.858 187.556 269.672 189.131 269.672C190.737 269.672 191.461 270.759 191.461 272.471V278.991C191.461 279.32 191.713 279.616 192.059 279.616H194.42C194.735 279.616 195.019 279.32 195.019 278.991V272.306C195.019 271.714 194.987 271.055 194.987 271.055C194.987 271.055 195.806 269.672 197.632 269.672C199.206 269.672 199.994 270.759 199.994 272.471V278.991C199.994 279.32 200.245 279.616 200.592 279.616H203.142C203.489 279.616 203.741 279.32 203.741 278.991V272.702C203.741 269.244 202.261 266.116 198.23 266.116C195.963 266.116 194.326 267.565 193.791 268.157C192.752 266.84 191.492 266.116 189.697 266.116C187.462 266.116 186.014 267.433 185.478 268.059L185.037 266.807C184.974 266.61 184.786 266.445 184.502 266.445H183.337C183.022 266.445 182.739 266.709 182.739 267.071V278.991Z" fill="#64646F"/>
<path d="M206.332 273.031C206.332 276.818 209.008 279.946 212.787 279.946C214.833 279.946 216.439 279.155 217.478 278.135C217.793 277.871 217.73 277.509 217.51 277.278L216.219 275.731C215.998 275.467 215.715 275.533 215.4 275.731C214.833 276.159 213.92 276.554 212.944 276.554C211.118 276.554 210.016 275.039 209.921 273.689H217.982C218.265 273.689 218.549 273.459 218.58 273.13C218.612 272.899 218.643 272.471 218.643 272.241C218.643 268.684 215.998 266.116 212.755 266.116C209.008 266.116 206.332 269.31 206.332 273.031ZM210.205 271.384C210.362 270.133 211.401 269.145 212.661 269.145C213.857 269.145 214.865 270.166 214.959 271.384H210.205Z" fill="#64646F"/>
<path d="M221.567 278.991C221.567 279.32 221.819 279.616 222.165 279.616H233.689C234.035 279.616 234.287 279.32 234.287 278.991V276.291C234.287 275.961 234.035 275.665 233.689 275.665H225.66V257.192C225.66 256.863 225.377 256.567 225.062 256.567H222.165C221.819 256.567 221.567 256.863 221.567 257.192V278.991Z" fill="#64646F"/>
<path d="M235.574 275.435C235.574 278.233 237.306 279.946 239.825 279.946C241.777 279.946 242.942 278.958 243.667 278.266L244.044 279.155C244.202 279.518 244.359 279.616 244.58 279.616H245.713C246.028 279.616 246.311 279.32 246.311 278.991V271.845C246.311 268.256 245.398 266.116 241.462 266.116C239.447 266.116 237.432 266.643 237.18 266.742C236.897 266.84 236.645 267.071 236.739 267.565L237.023 269.277C237.086 269.705 237.306 270.001 237.747 269.87C238.471 269.639 240.109 269.376 241.274 269.376C242.439 269.376 242.942 269.968 242.911 271.648C242.911 271.648 241.872 271.286 240.612 271.286C237.401 271.286 235.574 273.097 235.574 275.435ZM239.038 275.435C239.038 274.381 239.857 273.656 241.085 273.656C241.998 273.656 242.848 274.052 242.848 274.052V275.863C242.659 276.258 241.683 277.147 240.675 277.147C239.699 277.147 239.038 276.422 239.038 275.435Z" fill="#64646F"/>
<path d="M250.586 275.698C250.586 278.365 251.657 279.946 254.081 279.946C255.624 279.946 257.67 279.188 257.828 279.09C258.143 278.958 258.3 278.629 258.174 278.299L257.545 276.225C257.45 275.896 257.198 275.731 256.852 275.863C256.505 275.994 255.844 276.225 255.309 276.225C254.805 276.225 254.333 276.093 254.333 275.171V269.903H257.104C257.45 269.903 257.702 269.606 257.702 269.277V267.071C257.702 266.709 257.45 266.445 257.104 266.445H254.333V262.757C254.333 262.428 254.081 262.132 253.766 262.132L251.184 262.165C250.869 262.165 250.586 262.461 250.586 262.79V266.445H249.515C249.201 266.445 248.949 266.709 248.949 267.071V269.277C248.949 269.606 249.201 269.903 249.515 269.903H250.586V275.698Z" fill="#64646F"/>
<path d="M261.44 275.698C261.44 278.365 262.511 279.946 264.935 279.946C266.478 279.946 268.525 279.188 268.682 279.09C268.997 278.958 269.154 278.629 269.029 278.299L268.399 276.225C268.304 275.896 268.052 275.731 267.706 275.863C267.36 275.994 266.699 276.225 266.163 276.225C265.659 276.225 265.187 276.093 265.187 275.171V269.903H267.958C268.304 269.903 268.556 269.606 268.556 269.277V267.071C268.556 266.709 268.304 266.445 267.958 266.445H265.187V262.757C265.187 262.428 264.935 262.132 264.62 262.132L262.039 262.165C261.724 262.165 261.44 262.461 261.44 262.79V266.445H260.37C260.055 266.445 259.803 266.709 259.803 267.071V269.277C259.803 269.606 260.055 269.903 260.37 269.903H261.44V275.698Z" fill="#64646F"/>
<path d="M270.689 273.031C270.689 276.818 273.365 279.946 277.144 279.946C279.19 279.946 280.796 279.155 281.835 278.135C282.15 277.871 282.087 277.509 281.867 277.278L280.576 275.731C280.355 275.467 280.072 275.533 279.757 275.731C279.19 276.159 278.277 276.554 277.301 276.554C275.475 276.554 274.373 275.039 274.278 273.689H282.339C282.622 273.689 282.906 273.459 282.937 273.13C282.969 272.899 283 272.471 283 272.241C283 268.684 280.355 266.116 277.112 266.116C273.365 266.116 270.689 269.31 270.689 273.031ZM274.562 271.384C274.719 270.133 275.758 269.145 277.018 269.145C278.214 269.145 279.222 270.166 279.316 271.384H274.562Z" fill="#64646F"/>
<rect x="133" y="256" width="15.704" height="5.10085" rx="1.03063" fill="#64646F"/>
<path fill-rule="evenodd" clip-rule="evenodd" d="M136.853 256C136.294 256.003 135.843 256.456 135.843 257.015V256H136.853ZM136.864 256C137.422 256.003 137.874 256.456 137.874 257.015V259.105C137.88 259.661 138.332 260.109 138.889 260.109C139.45 260.109 139.904 259.654 139.904 259.094V256H137.874H137.874H136.864ZM135.843 256H133.948V258.17C133.948 258.693 134.372 259.117 134.895 259.117C135.419 259.117 135.843 258.693 135.843 258.17V256Z" fill="#7971EA"/>
<path d="M139.904 256H141.8V261.287C141.8 261.81 141.375 262.234 140.852 262.234C140.329 262.234 139.904 261.81 139.904 261.287V256Z" fill="#7971EA"/>
<rect x="137.874" y="267.335" width="5.95668" height="2.12535" rx="1.06268" fill="#64646F"/>
<path d="M138.821 268.469H142.883V278.773C142.883 279.342 142.421 279.804 141.852 279.804H139.852C139.283 279.804 138.821 279.342 138.821 278.773V268.469Z" fill="#64646F"/>
<defs>
<filter id="filter0_d" x="-2.00004" y="7.77778" width="420.444" height="249.333" filterUnits="userSpaceOnUse" color-interpolation-filters="sRGB">
<feFlood flood-opacity="0" result="BackgroundImageFix"/>
<feColorMatrix in="SourceAlpha" type="matrix" values="0 0 0 0 0 0 0 0 0 0 0 0 0 0 0 0 0 0 127 0"/>
<feOffset dy="2.44444"/>
<feGaussianBlur stdDeviation="7.33333"/>
<feColorMatrix type="matrix" values="0 0 0 0 0.0666667 0 0 0 0 0.0627451 0 0 0 0 0.137255 0 0 0 0.1 0"/>
<feBlend mode="normal" in2="BackgroundImageFix" result="effect1_dropShadow"/>
<feBlend mode="normal" in="SourceGraphic" in2="effect1_dropShadow" result="shape"/>
</filter>
</defs>
</svg>
