<svg width="24" height="24" viewBox="0 0 24 24" fill="none" xmlns="http://www.w3.org/2000/svg">
<g clip-path="url(#clip0)">
<path d="M23.954 4.56911C23.0555 4.96472 22.1036 5.22585 21.129 5.34411C22.1551 4.72736 22.9234 3.76016 23.292 2.62111C22.341 3.17611 21.287 3.58011 20.165 3.80511C19.4248 3.01354 18.4439 2.48853 17.3746 2.31161C16.3054 2.13469 15.2077 2.31576 14.2519 2.8267C13.2962 3.33764 12.5359 4.14986 12.0891 5.13723C11.6423 6.12461 11.534 7.23188 11.781 8.28711C7.691 8.09411 4.066 6.13011 1.64 3.16111C1.19879 3.91092 0.968664 4.76614 0.974 5.63611C0.974 7.34611 1.844 8.84911 3.162 9.73211C2.38086 9.70725 1.61697 9.49605 0.934 9.11611V9.17711C0.933557 10.3135 1.32627 11.4151 2.04551 12.2949C2.76474 13.1747 3.76621 13.7786 4.88 14.0041C4.1583 14.1975 3.40241 14.2265 2.668 14.0891C2.98425 15.067 3.59783 15.9219 4.42315 16.5344C5.24847 17.147 6.24439 17.4867 7.272 17.5061C5.53149 18.872 3.38246 19.6133 1.17 19.6111C0.78 19.6111 0.391 19.5881 0 19.5441C2.25571 20.9884 4.87851 21.7551 7.557 21.7531C16.611 21.7531 21.556 14.2571 21.556 7.76711C21.556 7.55811 21.556 7.34711 21.541 7.13711C22.507 6.44196 23.3402 5.57892 24.001 4.58911L23.954 4.56911Z" fill="#34495E"/>
</g>
<defs>
<clipPath id="clip0">
<rect width="24" height="24" fill="white"/>
</clipPath>
</defs>
</svg>
